Coordinates
version=1
nRows=5
nColumns=40
inDegrees=yes

Units are S.I. units (second, meters, Newtons, ...)
If the header above contains a line with 'inDegrees', this indicates whether rotational values are in degrees (yes) or radians (no).

endheader
time	pelvis_tilt	pelvis_list	pelvis_rotation	pelvis_tx	pelvis_ty	pelvis_tz	hip_flexion_r	hip_adduction_r	hip_rotation_r	knee_angle_r	knee_angle_r_beta	ankle_angle_r	subtalar_angle_r	mtp_angle_r	hip_flexion_l	hip_adduction_l	hip_rotation_l	knee_angle_l	knee_angle_l_beta	ankle_angle_l	subtalar_angle_l	mtp_angle_l	lumbar_extension	lumbar_bending	lumbar_rotation	arm_flex_r	arm_add_r	arm_rot_r	elbow_flex_r	pro_sup_r	wrist_flex_r	wrist_dev_r	arm_flex_l	arm_add_l	arm_rot_l	elbow_flex_l	pro_sup_l	wrist_flex_l	wrist_dev_l
      0.12000000	     -5.40361984	    -10.49244537	     89.87586451	      0.22241860	      0.88481148	      1.70273819	     42.10578635	     -3.93218829	      3.38527716	      8.02426804	      0.14004990	      9.30028436	      0.00000000	      0.00000000	    -10.69229412	      9.08142629	      5.33556451	     -5.14273641	     -0.08975768	     11.14011831	      0.00000000	     -0.00000000	      3.20455881	     -5.99896864	     -3.96095760	     -0.00000000	     -0.00000000	     -0.00000000	      0.00000000	      0.00000000	      0.00000000	      0.00000000	      0.00000000	     -0.00000000	      0.00000000	      0.00000000	      0.00000000	     -0.00000000	      0.00000000
      0.13000000	     -5.57242910	    -10.51452943	     89.89070046	      0.22336002	      0.88089849	      1.68090354	     42.08965275	     -3.89685958	      5.18138170	      6.26478867	      0.10934119	      9.75107975	      0.00000000	      0.00000000	    -11.87815832	      9.14894648	      5.23454121	     -4.51046872	     -0.07872253	     11.47484115	      0.00000000	      0.00000000	      3.42715145	     -6.18235729	     -3.59023450	      0.00000000	      0.00000000	      0.00000000	      0.00000000	      0.00000000	      0.00000000	      0.00000000	      0.00000000	      0.00000000	      0.00000000	      0.00000000	      0.00000000	      0.00000000	      0.00000000
      0.14000000	     -5.59683728	    -10.53756131	     89.90092324	      0.22446118	      0.87759624	      1.65890239	     42.12087261	     -3.70847683	      6.25959507	      5.60123841	      0.09776005	      9.88156711	      0.00000000	      0.00000000	    -12.77192434	      9.05878212	      4.85748028	     -3.37374558	     -0.05888297	     11.52113942	      0.00000000	      0.00000000	      3.67910431	     -6.21423870	     -3.05027855	      0.00000000	      0.00000000	      0.00000000	      0.00000000	      0.00000000	      0.00000000	      0.00000000	      0.00000000	      0.00000000	      0.00000000	      0.00000000	      0.00000000	      0.00000000	      0.00000000
      0.15000000	     -5.49671702	    -10.63089122	     89.90781656	      0.22568194	      0.87490070	      1.63679992	     42.26973929	     -3.36773815	      6.53761824	      5.93787881	      0.10363554	      9.55042604	     -0.00000000	      0.00000000	    -13.25961911	      8.81732716	      4.06944543	     -1.71089213	     -0.02986070	     11.26423494	      0.00000000	      0.00000000	      4.03619419	     -6.11069580	     -2.45497851	     -0.00000000	      0.00000000	      0.00000000	      0.00000000	      0.00000000	     -0.00000000	     -0.00000000	      0.00000000	     -0.00000000	     -0.00000000	      0.00000000	      0.00000000	     -0.00000000	     -0.00000000
      0.16000000	     -5.29363024	    -10.76837532	     89.91303843	      0.22697594	      0.87283520	      1.61459371	     42.49469712	     -2.91980920	      6.09953121	      7.09488934	      0.12382918	      8.60579470	     -0.00000000	      0.00000000	    -13.39159541	      8.43450866	      3.10690377	      0.41097934	      0.00717294	     10.54457094	      0.00000000	      0.00000000	      4.45979698	     -5.89301493	     -1.80828307	     -0.00000000	     -0.00000000	      0.00000000	      0.00000000	      0.00000000	      0.00000000	     -0.00000000	     -0.00000000	      0.00000000	     -0.00000000	      0.00000000	      0.00000000	      0.00000000	      0.00000000
